<mxfile host="drawio-plugin" modified="2024-11-24T18:20:38.948Z" agent="Mozilla/5.0 (Windows NT 10.0; Win64; x64) AppleWebKit/537.36 (KHTML, like Gecko) Chrome/122.0.0.0 Safari/537.36" etag="pT1aSzMIo92aSow094Pi" version="22.1.22" type="embed">
  <diagram id="rnzY0O4AlzitF-j8xZDR" name="Page-1">
    <mxGraphModel dx="900" dy="739" grid="1" gridSize="10" guides="1" tooltips="1" connect="1" arrows="1" fold="1" page="1" pageScale="1" pageWidth="850" pageHeight="1100" math="0" shadow="0">
      <root>
        <mxCell id="0" />
        <mxCell id="1" parent="0" />
        <mxCell id="5" value="" style="rounded=0;whiteSpace=wrap;html=1;" parent="1" vertex="1">
          <mxGeometry x="370" y="170" width="210" height="400" as="geometry" />
        </mxCell>
        <mxCell id="16" value="API" style="text;html=1;align=center;verticalAlign=middle;resizable=0;points=[];autosize=1;strokeColor=none;fillColor=none;" parent="1" vertex="1">
          <mxGeometry x="685" y="375.09" width="40" height="30" as="geometry" />
        </mxCell>
        <mxCell id="17" value="" style="shape=providedRequiredInterface;html=1;verticalLabelPosition=bottom;sketch=0;" parent="1" vertex="1">
          <mxGeometry x="690" y="345.09" width="30" height="30" as="geometry" />
        </mxCell>
        <mxCell id="32" value="&amp;lt;&amp;lt;container&amp;gt;&amp;gt;&lt;br&gt;backend" style="text;html=1;strokeColor=none;fillColor=none;align=center;verticalAlign=middle;whiteSpace=wrap;rounded=0;" parent="1" vertex="1">
          <mxGeometry x="445" y="190" width="60" height="30" as="geometry" />
        </mxCell>
        <mxCell id="38" value="" style="endArrow=none;html=1;rounded=0;entryX=-0.011;entryY=0.453;entryDx=0;entryDy=0;exitX=1;exitY=0.5;exitDx=0;exitDy=0;exitPerimeter=0;entryPerimeter=0;" parent="1" source="17" edge="1">
          <mxGeometry width="50" height="50" relative="1" as="geometry">
            <mxPoint x="505" y="440.51" as="sourcePoint" />
            <mxPoint x="844.94" y="360.8599999999999" as="targetPoint" />
          </mxGeometry>
        </mxCell>
        <mxCell id="46" value="" style="rounded=0;whiteSpace=wrap;html=1;" vertex="1" parent="1">
          <mxGeometry x="840" y="170" width="210" height="400" as="geometry" />
        </mxCell>
        <mxCell id="47" value="" style="endArrow=none;html=1;rounded=0;entryX=0;entryY=0.5;entryDx=0;entryDy=0;entryPerimeter=0;exitX=1.005;exitY=0.478;exitDx=0;exitDy=0;exitPerimeter=0;" edge="1" parent="1" source="5" target="17">
          <mxGeometry width="50" height="50" relative="1" as="geometry">
            <mxPoint x="570" y="360" as="sourcePoint" />
            <mxPoint x="784.94" y="420.8599999999999" as="targetPoint" />
          </mxGeometry>
        </mxCell>
        <mxCell id="48" value="&amp;lt;&amp;lt;container&amp;gt;&amp;gt;&lt;br&gt;frontend" style="text;html=1;strokeColor=none;fillColor=none;align=center;verticalAlign=middle;whiteSpace=wrap;rounded=0;" vertex="1" parent="1">
          <mxGeometry x="915" y="190" width="60" height="30" as="geometry" />
        </mxCell>
      </root>
    </mxGraphModel>
  </diagram>
</mxfile>
